<?xml version="1.0" encoding="UTF-8"?>
<svg id="Layer_2" data-name="Layer 2" xmlns="http://www.w3.org/2000/svg" viewBox="0 0 977.14 442.65">
  <defs>
    <style>
      .cls-1, .cls-2 {
        fill: #fff;
        stroke: #fff;
        stroke-miterlimit: 10;
      }

      .cls-2 {
        stroke-width: 5px;
      }
    </style>
  </defs>
  <g id="Layer_1-2" data-name="Layer 1">
    <g>
      <g>
        <path class="cls-2" d="M153.58,149.99v75.54h-12.71v-25.06h-12.71v-12.71h-12.35v-12.71h-12.71v-12.36h-34.24v12.36h-12.71v38.12h12.71v12.35h25.42v12.71h25.06v12.71h25.06v12.36h12.71v75.89h-12.71v12.36h-12.35v12.71H43.8v-12.71h-12.71v12.71h-12.71v-75.54h12.71v25.06h12.71v12.71h12.35v12.71h12.71v12.36h37.77v-12.36h12.71v-50.48h-12.71v-12.71h-25.06v-12.71h-25.42v-12.36h-25.06v-12.71h-12.71v-63.19h12.71v-12.36h12.71v-12.71h84.37v12.71h12.71v-12.71h12.71Z"/>
        <path class="cls-2" d="M313.14,187.76v12.71h12.71v12.35h12.35v12.71h12.71v100.96h-12.71v12.71h-12.35v12.36h-12.71v12.71h-88.25v-12.71h-12.71v-12.36h-12.36v-12.71h-12.71v-100.96h12.71v-12.71h12.36v-12.35h12.71v-12.71h88.25ZM224.89,326.49h12.71v12.71h12.35v12.36h38.12v-12.36h12.36v-12.71h12.71v-100.96h-12.71v-12.71h-12.36v-12.35h-38.12v12.35h-12.35v12.71h-12.71v100.96Z"/>
        <path class="cls-2" d="M514.34,187.76v12.71h12.71v12.35h12.36v138.73h12.71v12.71h-62.83v-12.71h12.35v-138.73h-12.35v-12.35h-50.48v12.35h-12.71v138.73h12.71v12.71h-63.19v-12.71h12.71v-151.08h-12.71v-12.71h37.77v12.71h12.71v-12.71h88.25Z"/>
        <path class="cls-2" d="M728.26,99.51v252.04h12.71v12.71h-38.12v-12.71h-12.36v12.71h-75.89v-12.71h-12.36v-12.36h-12.71v-12.71h-12.71v-100.96h12.71v-12.71h12.71v-12.35h12.36v-12.71h63.19v12.71h12.71v-88.25h-12.71v-12.71h50.48ZM614.59,326.49h12.71v12.71h12.71v12.36h37.77v-12.36h12.71v-113.67h-12.71v-12.71h-12.71v-12.35h-25.06v12.35h-12.71v12.71h-12.71v100.96Z"/>
        <path class="cls-2" d="M884.99,187.76v50.48h-12.71v-12.71h-12.71v-12.71h-12.71v-12.35h-12.36v12.35l-12.71.35v12.35h-12.71v126.02h12.71v12.71h-63.19v-12.71h12.71v-151.08h-12.71v-12.71h38.12v25.06h12.35v-12.35h12.71v-12.71h63.19Z"/>
        <path class="cls-2" d="M953.11,187.76v163.79h12.71v12.71h-63.19v-12.71h12.71v-151.08h-12.71v-12.71h50.48ZM943.93,99.51v12.71h12.71v25.06h-12.71v12.71h-25.06v-12.71h-12.71v-25.06h12.71v-12.71h25.06Z"/>
      </g>
      <g>
        <path class="cls-1" d="M860.71,83.89v3.93h0v-3.93h0Z"/>
        <polygon class="cls-1" points="924.23 103.74 924.21 110.03 924.23 110.03 924.2 120.23 924.2 120.23 903.88 120.23 903.87 110.03 893.71 110.03 893.69 99.82 893.69 99.82 873.37 99.84 873.37 99.84 873.35 89.62 873.35 89.62 853.03 89.64 853.03 89.64 853 79.42 853 79.42 832.7 79.44 832.7 79.44 832.64 69.23 832.64 69.23 792.02 69.24 792.02 69.24 791.96 59.03 751.36 59.05 751.18 48.84 568.35 48.84 568.16 59.04 507.25 59.03 507.14 69.24 507.14 69.24 446.21 69.23 446.21 69.23 446.14 79.44 446.14 79.44 415.67 79.42 415.67 79.42 415.64 89.65 385.23 89.61 385.23 89.61 385.1 99.84 385.1 99.84 354.65 99.82 354.61 110.04 334.3 110.02 334.27 120.23 334.27 120.23 313.96 120.21 313.96 120.21 313.93 130.43 293.62 130.41 293.61 130.41 293.6 140.62 283.42 140.62 283.42 150.81 283.42 150.81 273.25 150.81 273.25 161.01 273.25 161.01 263.08 161 263.08 161 263.08 171.21 252.91 171.19 252.91 144.94 263.08 144.93 263.08 132.9 263.08 132.9 273.25 132.9 273.25 120.86 273.25 120.86 283.42 120.86 283.42 108.82 283.43 108.82 293.6 108.82 293.61 96.77 313.93 96.8 313.96 84.74 313.96 84.74 334.27 84.76 334.27 84.76 334.31 72.7 334.31 72.7 364.78 72.73 364.81 60.67 385.12 60.69 385.12 60.69 385.17 48.64 415.62 48.66 415.69 36.6 415.69 36.6 456.3 36.62 456.3 36.62 456.38 24.57 456.38 24.57 496.99 24.59 496.99 24.59 497.09 12.53 497.09 12.53 568.15 12.55 568.35 .5 751.18 .5 751.36 12.55 802.12 12.53 802.19 24.59 832.65 24.57 832.7 36.63 832.7 36.63 863.16 36.6 863.16 36.6 863.2 48.66 883.52 48.64 883.52 48.64 883.54 60.68 883.54 60.68 893.7 60.68 893.7 72.71 893.7 72.71 903.87 72.71 903.87 84.75 903.87 84.75 914.05 84.75 914.05 84.75 914.04 92.49 914.04 96.79 914.04 96.79 924.23 96.79 924.23 96.79 924.21 103.74 924.23 103.74"/>
        <rect class="cls-1" x="860.71" y="83.89" width="0" height="3.93"/>
      </g>
    </g>
  </g>
</svg>